<svg width="37" height="22" viewBox="0 0 37 22" fill="none" xmlns="http://www.w3.org/2000/svg">
<path d="M18.5004 21C23.9567 21 28.3798 16.5228 28.3798 11C28.3798 5.47715 23.9567 1 18.5004 1C13.0442 1 8.62103 5.47715 8.62103 11C8.62103 16.5228 13.0442 21 18.5004 21Z" stroke="#31393C" stroke-width="2" stroke-miterlimit="10" stroke-linecap="round" stroke-linejoin="round"/>
<path d="M18.5005 7.07153C20.6259 7.07161 22.3697 8.81921 22.3697 11.0002C22.3695 13.1811 20.6258 14.9279 18.5005 14.928C16.3753 14.928 14.6316 13.1812 14.6314 11.0002C14.6314 8.81916 16.3752 7.07153 18.5005 7.07153Z" stroke="#31393C" stroke-width="2" stroke-miterlimit="10" stroke-linecap="round" stroke-linejoin="round"/>
<path d="M36 11C36 11 27.7439 21 18.4996 21C9.25527 21 1 11 1 11C1 11 9.1147 1 18.5004 1C27.8861 1 36 11 36 11Z" stroke="#31393C" stroke-width="2" stroke-miterlimit="10" stroke-linecap="round" stroke-linejoin="round"/>
</svg>
