<svg width="40" height="40" viewBox="0 0 40 40" fill="none" xmlns="http://www.w3.org/2000/svg">
<g clip-path="url(#clip0_97_6)">
<mask id="mask0_97_6" style="mask-type:luminance" maskUnits="userSpaceOnUse" x="0" y="0" width="40" height="40">
<path d="M39.802 0H0.198029V40H39.802V0Z" fill="white"/>
</mask>
<g mask="url(#mask0_97_6)">
<path d="M0.198029 19.2C0.198029 10.149 0.198029 5.62356 2.98197 2.81178C5.76591 0 10.2466 0 19.2079 0H20.7921C29.7534 0 34.2341 0 37.0181 2.81178C39.802 5.62356 39.802 10.149 39.802 19.2V20.8C39.802 29.851 39.802 34.3764 37.0181 37.1882C34.2341 40 29.7534 40 20.7921 40H19.2079C10.2466 40 5.76591 40 2.98197 37.1882C0.198029 34.3764 0.198029 29.851 0.198029 20.8V19.2Z" fill="#0077FF"/>
<path d="M21.2707 28.8167C12.2443 28.8167 7.09582 22.5667 6.88129 12.1667H11.4028C11.5513 19.8001 14.8845 23.0334 17.5248 23.7001V12.1667H21.7824V18.75C24.3896 18.4667 27.1285 15.4667 28.0527 12.1667H32.3102C31.6006 16.2334 28.6303 19.2334 26.5181 20.4667C28.6303 21.4667 32.0133 24.0834 33.3005 28.8167H28.6138C27.6072 25.6501 25.0992 23.2001 21.7824 22.8667V28.8167H21.2707Z" fill="white"/>
</g>
</g>
<defs>
<clipPath id="clip0_97_6">
<rect width="40" height="40" fill="white"/>
</clipPath>
</defs>
</svg>
